HIERARCHY
ROOT root
{
	OFFSET 0.000000 0.000642 0.045086
	CHANNELS 6 Xposition Yposition Zposition Xrotation Yrotation Zrotation
	JOINT pelvis
	{
		OFFSET -0.002936 0.026773 0.927670
		CHANNELS 6 Xposition Yposition Zposition Xrotation Yrotation Zrotation
		JOINT thigh_R
		{
			OFFSET -0.109487 -0.026910 -0.119863
			CHANNELS 6 Xposition Yposition Zposition Xrotation Yrotation Zrotation
			JOINT calf_R
			{
				OFFSET -0.031978 -0.023263 -0.393771
				CHANNELS 3 Xrotation Yrotation Zrotation
				JOINT foot_R
				{
					OFFSET -0.052496 0.000902 -0.370102
					CHANNELS 3 Xrotation Yrotation Zrotation
					JOINT toes_R
					{
						OFFSET -0.009320 -0.126011 -0.069821
						CHANNELS 6 Xposition Yposition Zposition Xrotation Yrotation Zrotation
						End Site
						{
							OFFSET -0.004473 -0.046724 -0.003049
						}
					}
				}
				JOINT calf_twist_R
				{
					OFFSET 0.000000 0.000000 0.000000
					CHANNELS 6 Xposition Yposition Zposition Xrotation Yrotation Zrotation
					End Site
					{
						OFFSET -0.038816 0.005263 -0.254563
					}
				}
			}
			JOINT thigh_twist_R
			{
				OFFSET 0.000000 -0.000000 0.000000
				CHANNELS 6 Xposition Yposition Zposition Xrotation Yrotation Zrotation
				End Site
				{
					OFFSET -0.013447 -0.026672 -0.173442
				}
			}
		}
		JOINT thigh_L
		{
			OFFSET 0.115359 -0.026910 -0.119863
			CHANNELS 6 Xposition Yposition Zposition Xrotation Yrotation Zrotation
			JOINT calf_L
			{
				OFFSET 0.031978 -0.023263 -0.393771
				CHANNELS 3 Xrotation Yrotation Zrotation
				JOINT foot_L
				{
					OFFSET 0.052496 0.000902 -0.370102
					CHANNELS 3 Xrotation Yrotation Zrotation
					JOINT toes_L
					{
						OFFSET 0.009320 -0.126011 -0.069821
						CHANNELS 3 Xrotation Yrotation Zrotation
						End Site
						{
							OFFSET 0.004473 -0.046724 -0.003049
						}
					}
				}
				JOINT calf_twist_L
				{
					OFFSET 0.000000 0.000000 0.000000
					CHANNELS 6 Xposition Yposition Zposition Xrotation Yrotation Zrotation
					End Site
					{
						OFFSET 0.038816 0.005263 -0.254563
					}
				}
			}
			JOINT thigh_twist_L
			{
				OFFSET 0.000000 0.000000 0.000000
				CHANNELS 6 Xposition Yposition Zposition Xrotation Yrotation Zrotation
				End Site
				{
					OFFSET 0.013447 -0.026672 -0.173442
				}
			}
		}
		JOINT spine01
		{
			OFFSET -0.000052 -0.001333 0.006057
			CHANNELS 3 Xrotation Yrotation Zrotation
			JOINT spine02
			{
				OFFSET 0.002988 -0.035069 0.061561
				CHANNELS 3 Xrotation Yrotation Zrotation
				JOINT spine03
				{
					OFFSET 0.000000 0.008649 0.117635
					CHANNELS 3 Xrotation Yrotation Zrotation
					JOINT clavicle_L
					{
						OFFSET 0.031960 -0.002455 0.159580
						CHANNELS 6 Xposition Yposition Zposition Xrotation Yrotation Zrotation
						JOINT upperarm_L
						{
							OFFSET 0.106613 -0.013377 -0.022582
							CHANNELS 6 Xposition Yposition Zposition Xrotation Yrotation Zrotation
							JOINT lowerarm_L
							{
								OFFSET 0.233664 0.021966 -0.134813
								CHANNELS 3 Xrotation Yrotation Zrotation
								JOINT hand_L
								{
									OFFSET 0.202817 -0.038212 -0.103702
									CHANNELS 3 Xrotation Yrotation Zrotation
									JOINT thumb01_L
									{
										OFFSET 0.008269 -0.017364 -0.009129
										CHANNELS 6 Xposition Yposition Zposition Xrotation Yrotation Zrotation
										JOINT thumb02_L
										{
											OFFSET 0.007103 -0.025549 -0.027526
											CHANNELS 3 Xrotation Yrotation Zrotation
											JOINT thumb03_L
											{
												OFFSET 0.011035 -0.026258 -0.014218
												CHANNELS 3 Xrotation Yrotation Zrotation
												End Site
												{
													OFFSET 0.008927 -0.014147 -0.017737
												}
											}
										}
									}
									JOINT index00_L
									{
										OFFSET 0.015790 -0.019369 -0.010869
										CHANNELS 6 Xposition Yposition Zposition Xrotation Yrotation Zrotation
										JOINT index01_L
										{
											OFFSET 0.047864 -0.007217 -0.023292
											CHANNELS 3 Xrotation Yrotation Zrotation
											JOINT index02_L
											{
												OFFSET 0.026189 -0.000355 -0.020650
												CHANNELS 3 Xrotation Yrotation Zrotation
												JOINT index03_L
												{
													OFFSET 0.017813 0.001193 -0.013583
													CHANNELS 3 Xrotation Yrotation Zrotation
													End Site
													{
														OFFSET 0.013377 0.001373 -0.016250
													}
												}
											}
										}
									}
									JOINT middle00_L
									{
										OFFSET 0.016276 -0.006169 -0.012863
										CHANNELS 6 Xposition Yposition Zposition Xrotation Yrotation Zrotation
										JOINT middle01_L
										{
											OFFSET 0.049067 -0.003947 -0.017410
											CHANNELS 3 Xrotation Yrotation Zrotation
											JOINT middle02_L
											{
												OFFSET 0.029087 0.000312 -0.026941
												CHANNELS 3 Xrotation Yrotation Zrotation
												JOINT middle03_L
												{
													OFFSET 0.019190 0.000267 -0.015543
													CHANNELS 3 Xrotation Yrotation Zrotation
													End Site
													{
														OFFSET 0.014683 0.000017 -0.017510
													}
												}
											}
										}
									}
									JOINT ring00_L
									{
										OFFSET 0.017106 0.003470 -0.011997
										CHANNELS 6 Xposition Yposition Zposition Xrotation Yrotation Zrotation
										JOINT ring01_L
										{
											OFFSET 0.044984 0.002116 -0.016733
											CHANNELS 3 Xrotation Yrotation Zrotation
											JOINT ring02_L
											{
												OFFSET 0.028856 0.000400 -0.026983
												CHANNELS 3 Xrotation Yrotation Zrotation
												JOINT ring03_L
												{
													OFFSET 0.017620 0.000363 -0.013833
													CHANNELS 3 Xrotation Yrotation Zrotation
													End Site
													{
														OFFSET 0.015507 -0.000807 -0.015547
													}
												}
											}
										}
									}
									JOINT pinky00_L
									{
										OFFSET 0.014366 0.020048 -0.015014
										CHANNELS 6 Xposition Yposition Zposition Xrotation Yrotation Zrotation
										JOINT pinky01_L
										{
											OFFSET 0.041296 0.001442 -0.016227
											CHANNELS 3 Xrotation Yrotation Zrotation
											JOINT pinky02_L
											{
												OFFSET 0.024951 -0.000301 -0.020450
												CHANNELS 3 Xrotation Yrotation Zrotation
												JOINT pinky03_L
												{
													OFFSET 0.013007 -0.001157 -0.010280
													CHANNELS 3 Xrotation Yrotation Zrotation
													End Site
													{
														OFFSET 0.009963 -0.001160 -0.011403
													}
												}
											}
										}
									}
								}
								JOINT lowerarm_twist_L
								{
									OFFSET 0.000000 -0.000000 0.000000
									CHANNELS 6 Xposition Yposition Zposition Xrotation Yrotation Zrotation
									End Site
									{
										OFFSET 0.113147 -0.023106 -0.058600
									}
								}
							}
							JOINT upperarm_twist_L
							{
								OFFSET 0.000000 0.000000 0.000000
								CHANNELS 6 Xposition Yposition Zposition Xrotation Yrotation Zrotation
								End Site
								{
									OFFSET 0.131225 0.003005 -0.082365
								}
							}
						}
					}
					JOINT clavicle_R
					{
						OFFSET -0.031960 -0.002455 0.159580
						CHANNELS 6 Xposition Yposition Zposition Xrotation Yrotation Zrotation
						JOINT upperarm_R
						{
							OFFSET -0.106613 -0.013377 -0.022582
							CHANNELS 6 Xposition Yposition Zposition Xrotation Yrotation Zrotation
							JOINT lowerarm_R
							{
								OFFSET -0.233664 0.021966 -0.134813
								CHANNELS 3 Xrotation Yrotation Zrotation
								JOINT hand_R
								{
									OFFSET -0.202817 -0.038212 -0.103702
									CHANNELS 3 Xrotation Yrotation Zrotation
									JOINT thumb01_R
									{
										OFFSET -0.008269 -0.017364 -0.009129
										CHANNELS 6 Xposition Yposition Zposition Xrotation Yrotation Zrotation
										JOINT thumb02_R
										{
											OFFSET -0.007103 -0.025549 -0.027526
											CHANNELS 3 Xrotation Yrotation Zrotation
											JOINT thumb03_R
											{
												OFFSET -0.011035 -0.026258 -0.014218
												CHANNELS 3 Xrotation Yrotation Zrotation
												End Site
												{
													OFFSET -0.008927 -0.014147 -0.017737
												}
											}
										}
									}
									JOINT index00_R
									{
										OFFSET -0.015790 -0.019369 -0.010869
										CHANNELS 6 Xposition Yposition Zposition Xrotation Yrotation Zrotation
										JOINT index01_R
										{
											OFFSET -0.047864 -0.007217 -0.023292
											CHANNELS 3 Xrotation Yrotation Zrotation
											JOINT index02_R
											{
												OFFSET -0.026189 -0.000355 -0.020650
												CHANNELS 3 Xrotation Yrotation Zrotation
												JOINT index03_R
												{
													OFFSET -0.017813 0.001193 -0.013583
													CHANNELS 3 Xrotation Yrotation Zrotation
													End Site
													{
														OFFSET -0.013377 0.001373 -0.016250
													}
												}
											}
										}
									}
									JOINT middle00_R
									{
										OFFSET -0.016276 -0.006169 -0.012863
										CHANNELS 6 Xposition Yposition Zposition Xrotation Yrotation Zrotation
										JOINT middle01_R
										{
											OFFSET -0.049067 -0.003947 -0.017410
											CHANNELS 3 Xrotation Yrotation Zrotation
											JOINT middle02_R
											{
												OFFSET -0.029087 0.000312 -0.026941
												CHANNELS 3 Xrotation Yrotation Zrotation
												JOINT middle03_R
												{
													OFFSET -0.019190 0.000267 -0.015543
													CHANNELS 3 Xrotation Yrotation Zrotation
													End Site
													{
														OFFSET -0.014683 0.000017 -0.017510
													}
												}
											}
										}
									}
									JOINT ring00_R
									{
										OFFSET -0.017106 0.003470 -0.011997
										CHANNELS 6 Xposition Yposition Zposition Xrotation Yrotation Zrotation
										JOINT ring01_R
										{
											OFFSET -0.044984 0.002116 -0.016733
											CHANNELS 3 Xrotation Yrotation Zrotation
											JOINT ring02_R
											{
												OFFSET -0.028856 0.000400 -0.026983
												CHANNELS 3 Xrotation Yrotation Zrotation
												JOINT ring03_R
												{
													OFFSET -0.017620 0.000363 -0.013833
													CHANNELS 3 Xrotation Yrotation Zrotation
													End Site
													{
														OFFSET -0.015507 -0.000807 -0.015547
													}
												}
											}
										}
									}
									JOINT pinky00_R
									{
										OFFSET -0.014366 0.020048 -0.015014
										CHANNELS 6 Xposition Yposition Zposition Xrotation Yrotation Zrotation
										JOINT pinky01_R
										{
											OFFSET -0.041296 0.001442 -0.016227
											CHANNELS 3 Xrotation Yrotation Zrotation
											JOINT pinky02_R
											{
												OFFSET -0.024951 -0.000301 -0.020450
												CHANNELS 3 Xrotation Yrotation Zrotation
												JOINT pinky03_R
												{
													OFFSET -0.013007 -0.001157 -0.010280
													CHANNELS 3 Xrotation Yrotation Zrotation
													End Site
													{
														OFFSET -0.009963 -0.001160 -0.011403
													}
												}
											}
										}
									}
								}
								JOINT lowerarm_twist_R
								{
									OFFSET 0.000000 0.000000 0.000000
									CHANNELS 6 Xposition Yposition Zposition Xrotation Yrotation Zrotation
									End Site
									{
										OFFSET -0.113147 -0.023106 -0.058600
									}
								}
							}
							JOINT upperarm_twist_R
							{
								OFFSET 0.000000 0.000000 0.000000
								CHANNELS 6 Xposition Yposition Zposition Xrotation Yrotation Zrotation
								End Site
								{
									OFFSET -0.131225 0.003005 -0.082365
								}
							}
						}
					}
					JOINT neck
					{
						OFFSET -0.000000 -0.002726 0.194733
						CHANNELS 6 Xposition Yposition Zposition Xrotation Yrotation Zrotation
						JOINT head
						{
							OFFSET 0.000000 -0.047407 0.104388
							CHANNELS 3 Xrotation Yrotation Zrotation
							End Site
							{
								OFFSET -0.000000 -0.000839 0.155358
							}
						}
					}
					JOINT breast_L
					{
						OFFSET 0.075423 -0.033073 0.045626
						CHANNELS 6 Xposition Yposition Zposition Xrotation Yrotation Zrotation
						End Site
						{
							OFFSET 0.027052 -0.131754 -0.030994
						}
					}
					JOINT breast_R
					{
						OFFSET -0.075423 -0.033073 0.045626
						CHANNELS 6 Xposition Yposition Zposition Xrotation Yrotation Zrotation
						End Site
						{
							OFFSET -0.027052 -0.131754 -0.030994
						}
					}
				}
			}
		}
	}
}
MOTION
Frames: 4
Frame Time: 0.041667
0.000000 0.000642 0.045086 0.000000 0.000000 0.000000 0.881889 -3.466311 1.160689 41.317033 -13.260479 164.184729 -0.109487 -0.026909 -0.119863 -72.971917 -25.405030 -13.338935 117.339016 -9.119835 -6.859320 -43.289117 -4.617887 -9.045635 -0.009320 -0.126011 -0.069821 21.992620 -1.547145 2.753585 0.000000 0.000000 -0.000000 0.000000 -0.000002 -0.000000 0.000000 0.000000 0.000000 0.000003 0.000004 -0.000001 0.115359 -0.026910 -0.119864 -37.743714 -24.479733 17.783844 76.239050 6.205396 5.951876 53.629730 -180.856197 11.888656 30.168099 2.047205 0.185943 0.000000 -0.000000 -0.000000 0.000001 -0.000002 -0.000001 -0.000000 0.000000 -0.000000 0.000001 -0.000004 -0.000000 12.227443 0.497182 -2.294944 9.929169 0.348830 -1.296695 -6.656096 -1.262434 0.249046 0.031960 -0.002455 0.159581 -0.000004 -0.000008 -0.000002 0.106614 -0.013378 -0.022582 -40.104118 17.595855 -45.256321 -12.471576 -7.190524 -18.918379 13.288501 -9.673284 -12.869921 0.008269 -0.017363 -0.009129 0.000924 -0.000075 -0.000382 -0.000300 -0.000116 0.000228 5.361563 12.244816 32.310008 0.015791 -0.019369 -0.010869 -0.000007 -0.000024 -0.000005 -0.000182 0.014396 -0.000343 -2.798321 -3.587045 -5.126782 1.371934 -6.040484 -0.749984 0.016274 -0.006169 -0.012862 0.000004 0.000011 -0.000003 -0.000645 0.015496 -0.000430 -0.000115 0.033345 0.000384 0.000283 0.071440 0.000417 0.017107 0.003471 -0.011996 -0.000005 -0.000024 -0.000004 -0.000005 0.017523 0.000237 -0.000668 0.031913 0.000151 0.000754 0.091900 -0.004035 0.014367 0.020048 -0.015014 -0.000000 -0.000005 -0.000002 0.000249 0.017960 -0.000005 0.001922 0.039137 -0.002046 0.005973 0.104260 -0.005368 0.000000 -0.000000 -0.000001 -0.000018 0.000679 0.000312 0.000000 0.000000 0.000000 -0.000009 0.001363 -0.000067 -0.031960 -0.002455 0.159580 0.000001 0.000016 -0.000006 -0.106614 -0.013377 -0.022582 -4.752887 -55.071388 87.098408 -19.633054 8.125057 30.292900 11.057661 8.976455 11.740380 -0.008269 -0.017364 -0.009130 0.001369 -0.000751 0.000199 -0.000076 -0.000414 0.000098 11.637127 8.487833 -50.857725 -0.015791 -0.019370 -0.010870 -0.000002 0.000011 0.000001 -0.000143 -0.013012 0.000294 10.861824 26.426859 -8.241693 1.359236 6.082374 0.666009 -0.016274 -0.006169 -0.012862 0.000004 0.000007 -0.000001 -0.000561 -0.013605 0.000375 -0.001179 -0.011792 0.000791 0.000542 -0.020176 -0.000671 -0.017107 0.003471 -0.011996 0.000001 0.000000 0.000001 -0.000713 -0.016761 0.000435 -0.000640 -0.015898 0.000171 -0.000127 -0.042069 0.002317 -0.014367 0.020048 -0.015014 0.000001 0.000002 -0.000002 -0.000985 -0.017901 0.001034 0.000524 -0.022092 0.001598 0.000327 -0.056873 0.006361 -0.000000 0.000000 -0.000000 -0.000002 -0.000006 0.000006 0.000001 -0.000000 0.000000 0.000000 -0.000075 -0.000001 0.000000 -0.002727 0.194732 18.166068 15.641178 18.567610 4.654527 -8.220831 4.318177 0.075423 -0.033073 0.045626 0.000428 0.000107 -0.000169 -0.075423 -0.033073 0.045626 0.000451 -0.000110 0.000182 
0.000000 0.000642 0.045086 0.000000 0.000000 0.000000 0.881100 -3.455476 1.163535 43.499412 -13.442297 165.109154 -0.109487 -0.026910 -0.119863 -79.335038 -23.285590 -16.400649 114.270424 -8.862479 -6.908000 -43.895638 -5.414380 -7.969692 -0.009320 -0.126011 -0.069821 16.944111 -1.509773 4.522965 0.000000 -0.000000 -0.000000 0.000001 -0.000002 -0.000000 0.000000 0.000000 0.000001 0.000003 0.000003 -0.000000 0.115359 -0.026910 -0.119864 -35.973817 -25.005801 18.418297 78.225084 6.358864 6.015210 52.658853 -181.178991 12.576975 28.079621 1.908704 -0.571327 0.000000 -0.000000 -0.000000 0.000000 -0.000006 -0.000001 -0.000000 -0.000000 -0.000000 0.000001 -0.000003 0.000001 11.593431 0.856639 -2.454863 10.747309 0.142819 -1.344934 -5.514135 -1.635904 0.315997 0.031960 -0.002455 0.159581 -0.000007 -0.000003 -0.000008 0.106613 -0.013377 -0.022581 -38.048037 18.474705 -44.601531 -13.541936 -7.448705 -20.616262 13.256420 -9.662465 -12.851587 0.008269 -0.017363 -0.009130 0.000923 -0.000073 -0.000380 -0.000298 -0.000116 0.000228 4.982417 11.084492 32.724365 0.015791 -0.019370 -0.010870 -0.000007 -0.000021 -0.000003 -0.000180 0.014389 -0.000342 -2.913175 -4.863460 -5.244455 1.371940 -6.040485 -0.749983 0.016275 -0.006169 -0.012863 -0.000000 0.000011 -0.000001 -0.000644 0.015501 -0.000432 -0.000110 0.033342 0.000381 0.000283 0.071437 0.000419 0.017107 0.003471 -0.011997 -0.000007 -0.000025 -0.000002 -0.000003 0.017523 0.000236 -0.000668 0.031911 0.000155 0.000756 0.091894 -0.004037 0.014367 0.020048 -0.015015 -0.000002 -0.000007 -0.000000 0.000250 0.017957 -0.000005 0.001924 0.039132 -0.002048 0.005970 0.104263 -0.005368 -0.000000 -0.000000 -0.000001 -0.000020 0.000669 0.000308 0.000000 -0.000000 0.000000 0.000000 0.001359 -0.000065 -0.031960 -0.002455 0.159580 -0.000004 0.000015 -0.000011 -0.106614 -0.013377 -0.022581 -4.308724 -53.525126 86.012087 -20.074949 8.144343 30.984262 11.277510 9.043835 11.852169 -0.008269 -0.017364 -0.009129 0.001372 -0.000757 0.000195 -0.000077 -0.000411 0.000092 12.425052 7.205121 -51.760557 -0.015791 -0.019370 -0.010869 -0.000002 0.000009 0.000001 -0.000138 -0.013012 0.000297 11.799145 25.130435 -9.499012 1.359235 6.082377 0.666010 -0.016274 -0.006169 -0.012862 0.000002 0.000005 0.000000 -0.000565 -0.013605 0.000377 -0.001180 -0.011794 0.000787 0.000542 -0.020170 -0.000671 -0.017107 0.003471 -0.011996 0.000003 -0.000001 0.000000 -0.000715 -0.016765 0.000436 -0.000648 -0.015893 0.000167 -0.000130 -0.042069 0.002319 -0.014367 0.020048 -0.015014 0.000000 0.000002 -0.000001 -0.000988 -0.017904 0.001032 0.000524 -0.022092 0.001597 0.000330 -0.056876 0.006359 -0.000000 -0.000000 -0.000000 0.000007 0.000001 0.000001 0.000000 -0.000000 0.000000 -0.000005 -0.000080 0.000000 0.000000 -0.002726 0.194733 19.082160 15.809152 17.697129 4.601603 -8.275218 4.281040 0.075423 -0.033073 0.045625 0.000424 0.000107 -0.000171 -0.075423 -0.033073 0.045627 0.000444 -0.000110 0.000173 
0.000000 0.000642 0.045086 0.000000 0.000000 0.000000 0.879422 -3.442740 1.167790 45.244764 -13.467001 165.702261 -0.109487 -0.026909 -0.119863 -81.090151 -21.620142 -16.898660 106.772652 -8.225127 -6.967882 -40.840549 -8.420977 -5.095576 -0.009320 -0.126011 -0.069821 16.193914 -1.517536 4.785943 0.000000 -0.000000 -0.000000 -0.000000 -0.000001 0.000000 0.000000 -0.000000 0.000000 0.000006 0.000003 -0.000000 0.115359 -0.026910 -0.119863 -34.173216 -25.077596 18.895944 79.976515 6.495796 6.066416 52.573889 -181.404907 12.807118 27.151800 1.856084 -0.908954 0.000000 0.000000 -0.000000 -0.000001 -0.000004 0.000000 -0.000000 -0.000000 -0.000000 0.000001 -0.000003 0.000000 10.262843 1.093706 -2.545269 11.743091 0.104205 -1.393730 -4.465068 -1.902153 0.371164 0.031960 -0.002455 0.159581 -0.000006 -0.000005 -0.000006 0.106614 -0.013377 -0.022582 -35.618070 19.193364 -43.789623 -15.034539 -7.753597 -22.972890 13.149554 -9.630309 -12.794064 0.008269 -0.017364 -0.009129 0.000922 -0.000074 -0.000376 -0.000297 -0.000114 0.000233 4.922688 10.459087 33.224987 0.015791 -0.019370 -0.010870 -0.000004 -0.000021 -0.000000 -0.000180 0.014393 -0.000344 -2.761518 -5.584788 -5.016601 1.371941 -6.040490 -0.749983 0.016275 -0.006169 -0.012862 0.000004 0.000014 0.000001 -0.000645 0.015497 -0.000433 -0.000112 0.033333 0.000383 0.000283 0.071434 0.000419 0.017107 0.003470 -0.011997 -0.000006 -0.000025 -0.000002 -0.000005 0.017521 0.000234 -0.000669 0.031914 0.000151 0.000755 0.091889 -0.004034 0.014367 0.020048 -0.015014 -0.000002 -0.000004 0.000002 0.000244 0.017960 -0.000005 0.001923 0.039137 -0.002047 0.005971 0.104264 -0.005364 -0.000000 -0.000000 -0.000001 -0.000022 0.000672 0.000308 0.000001 0.000000 -0.000000 -0.000006 0.001363 -0.000065 -0.031960 -0.002455 0.159580 0.000000 0.000015 -0.000008 -0.106613 -0.013377 -0.022582 -2.967888 -51.905749 85.272508 -20.985087 8.167135 32.407533 10.644939 8.851193 11.530013 -0.008269 -0.017364 -0.009130 0.001372 -0.000759 0.000199 -0.000080 -0.000411 0.000091 12.812758 7.462630 -52.318306 -0.015791 -0.019370 -0.010870 -0.000002 0.000008 0.000001 -0.000147 -0.013012 0.000298 12.408933 25.397222 -10.058542 1.359233 6.082376 0.666013 -0.016275 -0.006169 -0.012863 0.000003 0.000002 -0.000003 -0.000566 -0.013601 0.000380 -0.001187 -0.011796 0.000787 0.000545 -0.020172 -0.000672 -0.017107 0.003471 -0.011996 0.000006 -0.000001 -0.000001 -0.000717 -0.016761 0.000435 -0.000647 -0.015891 0.000168 -0.000132 -0.042070 0.002315 -0.014367 0.020048 -0.015014 0.000004 -0.000001 -0.000000 -0.000989 -0.017901 0.001031 0.000523 -0.022085 0.001597 0.000326 -0.056879 0.006363 -0.000001 -0.000000 -0.000001 0.000005 -0.000003 0.000004 0.000001 -0.000000 0.000001 -0.000003 -0.000078 0.000001 0.000000 -0.002727 0.194733 19.679372 15.864725 17.092414 4.472562 -8.133473 4.241538 0.075423 -0.033073 0.045626 0.000425 0.000107 -0.000170 -0.075423 -0.033073 0.045627 0.000449 -0.000109 0.000176 
0.000000 0.000642 0.045086 0.000000 0.000000 0.000000 0.879061 -3.425612 1.172364 46.626443 -13.906204 166.456778 -0.109487 -0.026910 -0.119863 -79.306201 -21.032002 -17.538992 99.370988 -7.592603 -6.944015 -32.566427 -8.075742 -7.062209 -0.009320 -0.126011 -0.069822 17.512154 -1.506669 4.323865 0.000000 -0.000000 0.000000 0.000000 0.000000 0.000001 0.000000 -0.000000 0.000000 0.000005 0.000004 -0.000001 0.115359 -0.026910 -0.119864 -31.694004 -25.005770 18.576352 80.862118 6.565702 6.090793 55.147675 -182.105547 12.236620 26.174395 1.806637 -1.265518 0.000000 0.000000 -0.000000 -0.000001 -0.000002 -0.000001 0.000000 -0.000000 -0.000000 0.000002 -0.000001 0.000001 9.195552 0.810965 -2.794841 12.205397 -0.207734 -1.442977 -3.472728 -2.034796 0.380733 0.031960 -0.002455 0.159581 -0.000007 -0.000006 -0.000005 0.106614 -0.013377 -0.022582 -33.190912 20.590951 -42.271044 -16.929510 -8.050039 -25.949594 13.002272 -9.586901 -12.721004 0.008269 -0.017363 -0.009129 0.000927 -0.000073 -0.000379 -0.000301 -0.000110 0.000226 4.601141 9.846768 33.158875 0.015791 -0.019369 -0.010870 -0.000001 -0.000021 -0.000002 -0.000182 0.014388 -0.000342 -3.021464 -6.221290 -5.354910 1.371941 -6.040483 -0.749982 0.016274 -0.006169 -0.012862 0.000004 0.000014 -0.000000 -0.000647 0.015504 -0.000431 -0.000111 0.033342 0.000386 0.000284 0.071440 0.000419 0.017107 0.003471 -0.011997 -0.000005 -0.000019 -0.000001 -0.000006 0.017520 0.000235 -0.000669 0.031911 0.000152 0.000756 0.091895 -0.004032 0.014367 0.020048 -0.015015 0.000001 -0.000000 -0.000001 0.000248 0.017964 -0.000006 0.001920 0.039140 -0.002049 0.005971 0.104257 -0.005368 -0.000000 -0.000000 -0.000000 -0.000016 0.000671 0.000309 0.000000 0.000000 0.000000 -0.000003 0.001361 -0.000068 -0.031960 -0.002455 0.159580 0.000001 0.000014 -0.000005 -0.106613 -0.013377 -0.022581 -0.762084 -50.727210 84.691914 -22.349333 8.159615 34.540653 10.545132 8.821652 11.477635 -0.008269 -0.017364 -0.009129 0.001372 -0.000752 0.000197 -0.000076 -0.000410 0.000095 13.046127 7.116681 -52.602476 -0.015791 -0.019369 -0.010870 -0.000002 0.000013 0.000000 -0.000141 -0.013007 0.000295 12.695695 25.047514 -10.438906 1.359230 6.082375 0.666012 -0.016274 -0.006169 -0.012862 0.000005 0.000005 -0.000002 -0.000570 -0.013608 0.000378 -0.001185 -0.011791 0.000792 0.000545 -0.020172 -0.000668 -0.017107 0.003471 -0.011996 0.000005 0.000002 0.000001 -0.000718 -0.016762 0.000434 -0.000647 -0.015891 0.000171 -0.000129 -0.042075 0.002319 -0.014367 0.020048 -0.015014 0.000001 0.000002 -0.000001 -0.000989 -0.017902 0.001032 0.000523 -0.022092 0.001599 0.000329 -0.056869 0.006361 -0.000001 -0.000000 -0.000000 0.000011 -0.000006 0.000001 0.000001 -0.000000 0.000001 -0.000010 -0.000080 -0.000000 0.000000 -0.002726 0.194733 20.459687 16.567601 16.222907 4.465823 -8.044649 4.119625 0.075424 -0.033073 0.045626 0.000426 0.000106 -0.000166 -0.075423 -0.033073 0.045627 0.000445 -0.000111 0.000178 
